<svg width="9" height="8" viewBox="0 0 9 8" fill="none" xmlns="http://www.w3.org/2000/svg">
<g clip-path="url(#clip0_31_197)">
<g clip-path="url(#clip1_31_197)">
<path d="M0.900035 1.50997C0.981296 1.50981 1.06166 1.52693 1.1358 1.56021C1.20993 1.59348 1.27614 1.64215 1.33003 1.70297L4.32603 5.08297L7.32203 1.70197C7.371 1.6439 7.43108 1.59621 7.49874 1.56169C7.5664 1.52717 7.64028 1.50653 7.71603 1.50097C7.79182 1.49534 7.86798 1.50481 7.94008 1.52885C8.01217 1.55288 8.07878 1.59099 8.13603 1.64097C8.19337 1.69094 8.24009 1.75192 8.27341 1.82029C8.30674 1.88865 8.32599 1.96302 8.33003 2.03897C8.33415 2.11467 8.32299 2.19042 8.29722 2.26172C8.27146 2.33301 8.2316 2.39839 8.18003 2.45397L4.75203 6.31597C4.69711 6.37405 4.63091 6.42033 4.55749 6.45197C4.48408 6.4836 4.40498 6.49994 4.32503 6.49997C4.24494 6.49995 4.16569 6.48363 4.0921 6.452C4.01852 6.42037 3.95215 6.37408 3.89703 6.31597L0.472035 2.45397C0.399503 2.37198 0.352303 2.27072 0.336151 2.16245C0.32 2.05418 0.335591 1.94355 0.381035 1.84397C0.426248 1.74448 0.499153 1.66012 0.591035 1.60097C0.683608 1.54188 0.791212 1.51064 0.901035 1.51097L0.900035 1.50997Z" fill="#221E46"/>
</g>
</g>
<defs>
<clipPath id="clip0_31_197">
<rect width="8" height="8" fill="white" transform="translate(0.330017)"/>
</clipPath>
<clipPath id="clip1_31_197">
<rect width="8" height="8" fill="white" transform="translate(0.330017)"/>
</clipPath>
</defs>
</svg>
